<svg xmlns="http://www.w3.org/2000/svg" width="458" height="78" viewBox="0 0 458 78">
  <metadata><?xpacket begin="﻿" id="W5M0MpCehiHzreSzNTczkc9d"?>
<x:xmpmeta xmlns:x="adobe:ns:meta/" x:xmptk="Adobe XMP Core 5.6-c140 79.160451, 2017/05/06-01:08:21        ">
   <rdf:RDF xmlns:rdf="http://www.w3.org/1999/02/22-rdf-syntax-ns#">
      <rdf:Description rdf:about=""/>
   </rdf:RDF>
</x:xmpmeta>
                                                                                                    
                                                                                                    
                                                                                                    
                                                                                                    
                                                                                                    
                                                                                                    
                                                                                                    
                                                                                                    
                                                                                                    
                                                                                                    
                                                                                                    
                                                                                                    
                                                                                                    
                                                                                                    
                                                                                                    
                                                                                                    
                                                                                                    
                                                                                                    
                                                                                                    
                                                                                                    
                           
<?xpacket end="w"?></metadata>
<defs>
    <style>
      .cls-1 {
        fill: #fff;
        fill-rule: evenodd;
      }
    </style>
  </defs>
  <path id="Sedona" class="cls-1" d="M9.53,51.934L0.239,66.8A41.654,41.654,0,0,0,12.2,74.408a38.286,38.286,0,0,0,13.705,3.078h1.278q1.625,0,3.368-.174t3.484-.523q2.091-.465,4.181-1.1a30.129,30.129,0,0,0,4.065-1.568,21.862,21.862,0,0,0,8.537-8.362,29.194,29.194,0,0,0,3.891-11.5c0-.386.018-0.813,0.058-1.278s0.058-.929.058-1.394V51.005a22.719,22.719,0,0,0-3.368-11.44A18.022,18.022,0,0,0,41.7,31.842q-1.394-.463-3.484-0.987t-4.3-1.1q-2.673-.811-5.11-1.684a12.642,12.642,0,0,1-3.717-1.916,9.885,9.885,0,0,1-1.277-1.278A4.075,4.075,0,0,1,23,23.363a1.761,1.761,0,0,1-.29-0.7,4.107,4.107,0,0,1-.058-0.7,5.807,5.807,0,0,1,2.323-4.355,9.364,9.364,0,0,1,4.994-2.381H30.9a16.647,16.647,0,0,1,7.549,1.742,44.7,44.7,0,0,1,6.62,4.065L51.458,6.755a45.328,45.328,0,0,0-7.607-3.833A40.993,40.993,0,0,0,35.546.6Q33.919,0.368,32.352.192A27.878,27.878,0,0,0,29.275.018,29.24,29.24,0,0,0,17.022,2.689,21.606,21.606,0,0,0,7.44,11.516,17.532,17.532,0,0,0,5.349,15.7a25.481,25.481,0,0,0-1.161,4.646A10.163,10.163,0,0,0,3.9,22.2c-0.04.621-.058,1.239-0.058,1.858v0.871a3.558,3.558,0,0,0,.116.871,18.979,18.979,0,0,0,.407,2.671Q4.65,29.753,5,30.912A15.67,15.67,0,0,0,11.853,39.8a37,37,0,0,0,10.685,4.472,0.529,0.529,0,0,1,.232.058,0.494,0.494,0,0,0,.232.058q1.045,0.234,2.207.523a25.347,25.347,0,0,1,2.439.755,21.574,21.574,0,0,1,5.865,3.31,6.5,6.5,0,0,1,2.729,5.284,7.946,7.946,0,0,1-.116,1.278,13.99,13.99,0,0,1-.348,1.51c-0.078.156-.156,0.31-0.232,0.465s-0.156.31-.232,0.465A7.885,7.885,0,0,1,32.7,60.529a10.276,10.276,0,0,1-3.542,1.394,7.3,7.3,0,0,1-.987.174,8.7,8.7,0,0,1-.987.058,0.917,0.917,0,0,1-.29-0.058,0.982,0.982,0,0,0-.29-0.058,0.914,0.914,0,0,1-.29-0.058,0.982,0.982,0,0,0-.29-0.058,15.943,15.943,0,0,1-9.059-3.194,49.2,49.2,0,0,1-7.085-6.446Q9.762,52.168,9.7,52.109T9.53,51.934h0ZM69.344,75.86h45.412V59.251H89.2V46.708h24.041v-15.8H89.2V18.02h25.551V1.876H69.344V75.86h0Zm111.613-6.969a32.041,32.041,0,0,0,10.336-12.544,41.176,41.176,0,0,0,3.949-15.912v-2.9a8.623,8.623,0,0,0-.116-1.394,40.351,40.351,0,0,0-4.065-15.331,30.492,30.492,0,0,0-10.1-11.963,30.4,30.4,0,0,0-11.208-5.11A73.776,73.776,0,0,0,157.38,1.993q-1.743-.114-3.543-0.116H128.692V75.86H152.56q1.8,0,3.658-.116A80.625,80.625,0,0,0,169.11,74a33.6,33.6,0,0,0,11.847-5.11h0Zm-32.4-9.64V18.485H156.1a31.706,31.706,0,0,1,6.1.813,13.36,13.36,0,0,1,5.4,2.671,16.478,16.478,0,0,1,5.11,6.562,23.683,23.683,0,0,1,2.091,8.537,3.9,3.9,0,0,1,.116.929v0.929a26,26,0,0,1-1.8,9.582,15.81,15.81,0,0,1-5.517,7.259,17.027,17.027,0,0,1-5.226,2.439,30.565,30.565,0,0,1-5.924,1.045q-1.162.117-2.439,0.174t-2.439.058a4.117,4.117,0,0,1-.7-0.058,5.076,5.076,0,0,0-.813-0.058,5.156,5.156,0,0,1-.754-0.058,5.481,5.481,0,0,0-.755-0.058h0Zm61.671-38.56a37.855,37.855,0,0,0-2.555,5.865,45.942,45.942,0,0,0-1.626,6.1,23.5,23.5,0,0,0-.464,3.136q-0.117,1.511-.117,3.02A38.266,38.266,0,0,0,211.037,58.5a37.806,37.806,0,0,0,15.331,14.576,37.411,37.411,0,0,0,7.491,2.9,45.613,45.613,0,0,0,7.84,1.394c0.541,0,1.064.018,1.568,0.058s1.025,0.058,1.568.058a41.526,41.526,0,0,0,21.719-6.214,37.044,37.044,0,0,0,15.215-17.48,42.1,42.1,0,0,0,1.568-4.7,29.578,29.578,0,0,0,.871-4.82,16.275,16.275,0,0,0,.29-2.381q0.057-1.22.058-2.381a40.29,40.29,0,0,0-4.529-18.525A36.274,36.274,0,0,0,267.251,6.755a40.031,40.031,0,0,0-8.072-3.949A42.472,42.472,0,0,0,250.642.715L247.8,0.483q-1.453-.114-2.846-0.116a40.724,40.724,0,0,0-19.86,5.226,36.759,36.759,0,0,0-14.867,15.1h0Zm52.846,26.6a20.5,20.5,0,0,1-7.143,9.814,18.173,18.173,0,0,1-11.092,3.659c-0.465,0-.929-0.018-1.394-0.058s-0.929-.1-1.393-0.174a14.587,14.587,0,0,1-1.51-.29c-0.465-.116-0.929-0.25-1.394-0.407a16.08,16.08,0,0,1-9.466-7.259A24.454,24.454,0,0,1,225.9,40.9a3.558,3.558,0,0,1-.116-0.871V39.159c0-.541.018-1.063,0.058-1.568s0.1-1.025.174-1.568q0.231-1.16.464-2.265a19.612,19.612,0,0,1,.581-2.149,1.859,1.859,0,0,1,.058-0.465,2.233,2.233,0,0,1,.174-0.465,19.334,19.334,0,0,1,6.969-9.872,17.9,17.9,0,0,1,10.917-3.717,15.656,15.656,0,0,1,2.323.174q1.16,0.174,2.323.407,1.159,0.348,2.323.813t2.323,1.045a17.816,17.816,0,0,1,6.736,7.2,27.438,27.438,0,0,1,3.02,9.64c0,0.465.018,0.929,0.058,1.394s0.058,0.929.058,1.394-0.02.969-.058,1.51-0.1,1.085-.174,1.626a19.619,19.619,0,0,1-.407,2.555q-0.291,1.279-.638,2.439h0ZM298.724,75.86h19.512V39.391q0-3.716-.348-7.433t-0.929-7.317q0.579,1.279,1.219,2.729t1.336,2.962q0.928,2.091,1.974,4.007a20.44,20.44,0,0,0,2.207,3.31L351.8,75.86h19.4V1.876H351.8V38.229q0,2.556.116,4.994t0.349,4.762q0.114,1.279.29,2.439t0.29,2.439q-0.7-1.394-1.394-2.9t-1.393-3.02q-0.931-1.857-1.917-3.659t-2.032-3.426L318.236,1.876H298.724V75.86h0Zm82.114,0h19.976L404.647,62.5h28.572l3.716,13.356h20.209L431.476,1.876h-25.2L380.838,75.86h0Zm35.656-52.148q0.462-1.625.871-3.252t0.755-3.368a0.954,0.954,0,0,0,.116-0.407,0.931,0.931,0,0,1,.116-0.406,12.938,12.938,0,0,1,.291-1.336q0.174-.637.29-1.219,0.114,0.583.232,1.22a9.378,9.378,0,0,0,.349,1.336q0.348,1.859.871,3.775t1.1,3.659l7.549,24.506H408.945l7.549-24.506h0Z"/>
</svg>
