<?xml version="1.0" encoding="utf-8"?>
<!-- Generator: Adobe Illustrator 20.1.0, SVG Export Plug-In . SVG Version: 6.00 Build 0)  -->
<svg version="1.1" id="Layer_1" xmlns="http://www.w3.org/2000/svg" xmlns:xlink="http://www.w3.org/1999/xlink" x="0px" y="0px"
	 viewBox="0 0 76.2 160.2" style="enable-background:new 0 0 76.2 160.2;" xml:space="preserve">
<style type="text/css">
	.st0{fill:#FFFFFF;}
</style>
<title>food</title>
<g>
	<title>academy-logo</title>
	<path d="M38.5,104l-0.2,0l-21.5,2.2v39.5l21.5,12.8l21.5-12.8v-39.5L38.5,104z M57,144.1l-18.7,11.1l-18.7-11.1v-16.2L38.2,139l0,2
		l-12.8-7.6l0,2l12.8,7.7l0,2.1l-12.8-7.6l0,2l12.8,7.7l13-7.8v-2h0v-6.4l5.8-3.4L57,144.1z M57,125.5l-5.1,3l-2.4,1.4l-11.3-6.7
		l0,2l9.6,5.7l-0.1,0.1l-0.2,0.1l-1.4,0.8l-8-4.7l0,2l6.3,3.7l-1.5,1l0,0l-4.7-2.8l0,2l3.1,1.8l-3.2,1.9l-18.5-11l18.6-11.2l0,0
		L57,125.5z M57,123.6l-18.8-11.1l0,0l-18.6,11.1v-14.8l18.7-2l18.7,2L57,123.6z"/>
</g>
<g>
	<title>fb-logo</title>
	<path class="st0" d="M40.1,3.4h2.4V0h-2.9c-3.1,0.2-4.2,2.4-3.8,6.1h-2v3.5h2v9.3h3.8V9.6h2.8V6.1h-2.9C39.6,5.1,39.6,3.7,40.1,3.4
		z"/>
</g>
<g>
	<title>tw-logo</title>
	<g id="W6EeEF_1_">
		<path class="st0" d="M40.8,38.6c1.4-0.5,2.9,0,3.7,1.2c0.7-0.2,1.4-0.5,2.1-0.7c0,0.7-0.3,1.3-0.9,1.7c0.5,0.1,1-0.1,1.3-0.5
			c-0.2,0.9-0.8,1.6-1.6,2c-0.2,6.6-3.3,11-10.4,10.8h-0.5c-0.4,0-4.3-0.4-5-1.8c1.7,0.3,3.4-0.1,4.8-1.1c-1-0.3-2.8-0.5-3.1-2.9
			c0.4,0.2,0.8,0.2,1.2,0.1c-1.2-0.8-2.6-1.5-2.5-3.7c0.4,0.3,0.9,0.5,1.4,0.5c-0.7-0.2-2-3.3-0.9-4.8c1.9,1.8,3.9,3.5,7.4,3.7
			C38.1,40.7,39,39.2,40.8,38.6z"/>
	</g>
</g>
<g>
	<title>youtube-logo</title>
	<path class="st0" d="M45.5,72.6H31.1c-1.6,0-2.8,1.3-2.8,2.8v8.3c0,1.6,1.3,2.8,2.8,2.8h14.3c1.6,0,2.8-1.3,2.9-2.8c0,0,0,0,0,0
		v-8.3C48.3,73.8,47,72.6,45.5,72.6C45.5,72.6,45.5,72.6,45.5,72.6z M35.3,83v-6.8l6.8,3.4L35.3,83z"/>
</g>
</svg>
